<svg width="153" height="136" viewBox="0 0 153 136" fill="none" xmlns="http://www.w3.org/2000/svg">
<path d="M78.912 91.6722C78.9316 91.6652 78.9539 91.6568 78.972 91.6499C80.1756 91.1486 81.2785 90.558 82.2754 89.8809C82.5658 89.6854 82.8437 89.4802 83.1131 89.2708C83.4496 89.0069 83.7805 88.7318 84.0905 88.4414C85.5118 87.1346 86.6036 85.6002 87.3757 83.8396C88.1464 82.079 88.5136 80.1467 88.4759 78.0342C88.4466 76.0865 88.1283 74.3287 87.5209 72.7566C87.0057 71.3981 86.2713 70.1821 85.3247 69.1028C85.0203 68.7551 84.6936 68.4242 84.3502 68.1087C82.8758 66.7642 80.9197 65.5802 78.4848 64.5526C77.1975 64.0095 75.7762 63.5097 74.218 63.0559C73.5883 62.866 72.9349 62.6943 72.2634 62.5212L72.033 47.8402C72.2047 47.8793 72.3778 47.924 72.5496 47.9673C72.8093 48.0329 73.0731 48.1055 73.3314 48.1809C73.5534 48.2451 73.7712 48.3107 73.989 48.3806C75.4355 48.8427 76.8582 49.45 78.2614 50.2026C78.3047 50.2291 78.3535 50.2515 78.3954 50.2752C79.5556 50.9007 80.6991 51.6239 81.8286 52.4491L82.4164 51.4229L83.0238 50.3715L83.4315 49.6609L86.0354 45.1302C83.8503 43.5679 81.5773 42.3197 79.2234 41.3801C78.8603 41.2349 78.4904 41.0966 78.1162 40.9682C76.5734 40.4307 74.9315 40.0244 73.1974 39.7381C72.773 39.6697 72.3415 39.6041 71.9017 39.5538L71.8249 34.6016L66.5934 34.6811L63.1057 34.7412L63.1825 39.6488C62.705 39.7242 62.2317 39.8094 61.7766 39.9085C61.0059 40.076 60.2673 40.2743 59.5538 40.5074C59.0763 40.661 58.61 40.8286 58.159 41.0184C57.2613 41.3815 56.4222 41.7975 55.6417 42.2708C55.0274 42.638 54.4494 43.0387 53.909 43.473C53.6214 43.6991 53.345 43.9393 53.0755 44.1836C52.6287 44.5969 52.2113 45.0311 51.8273 45.4946C51.0064 46.4845 50.339 47.5833 49.8294 48.7841C49.2946 50.0602 48.9554 51.4187 48.8241 52.8512C48.7934 53.2058 48.7739 53.566 48.7627 53.929C48.7599 54.1231 48.7599 54.3186 48.7627 54.5126C48.7976 56.6697 49.1634 58.5839 49.8587 60.2454C50.0039 60.593 50.1673 60.9281 50.3404 61.2576C50.7523 62.0325 51.2465 62.7543 51.8287 63.4259C52.1764 63.8336 52.5589 64.2231 52.975 64.5917C54.3544 65.8287 56.0829 66.8912 58.1535 67.789C59.3793 68.3153 60.7434 68.8082 62.2401 69.2592C62.6995 69.3974 63.1714 69.537 63.66 69.6669L63.7983 78.5801L63.8974 84.9188C63.734 84.8811 63.5721 84.8392 63.4073 84.796C63.3152 84.7778 63.2272 84.7569 63.1393 84.7345C62.9173 84.6801 62.6995 84.6159 62.4817 84.5516C61.172 84.1733 59.9113 83.6874 58.705 83.0926C58.0138 82.7519 57.3102 82.375 56.6093 81.9617C55.1126 81.0835 53.6033 80.0447 52.08 78.8412L50.8849 80.5976L50.279 81.4884L49.3282 82.879L47.2534 85.9339C48.7124 87.0732 50.2399 88.084 51.8287 88.9734C53.1272 89.698 54.4717 90.3402 55.8581 90.8917C58.2289 91.8495 60.7015 92.5378 63.2705 92.9693C63.519 93.0084 63.7745 93.0502 64.023 93.0907L64.1529 101.126L72.8693 100.989L72.8665 100.732L72.7492 93.2038C73.4096 93.1312 74.0589 93.0293 74.6885 92.9092C76.1978 92.6216 77.6066 92.2167 78.9134 91.675L78.912 91.6722ZM62.7427 59.9494C61.172 59.3351 60.0537 58.6663 59.3863 57.9333C58.9968 57.5061 58.6826 57.0383 58.4397 56.5287C58.0655 55.7315 57.8672 54.8296 57.8519 53.8285C57.8449 53.478 57.8672 53.1444 57.9161 52.8135C58.099 51.5415 58.6687 50.4162 59.6376 49.4403C60.238 48.8329 60.9961 48.347 61.9022 47.9854C62.1117 47.8975 62.3267 47.8207 62.5515 47.7481C62.7916 47.6713 63.0443 47.6029 63.3068 47.5387L63.4757 58.542L63.5065 60.23C63.2398 60.1351 62.9857 60.0429 62.7427 59.948V59.9494ZM73.9095 85.1185C73.5018 85.2204 73.0731 85.3098 72.6194 85.374L72.4058 71.7472C72.8651 71.8952 73.3035 72.0446 73.707 72.194C74.3213 72.416 74.8714 72.6477 75.3573 72.8809C76.3416 73.3542 77.1361 73.8806 77.7364 74.4614C78.1176 74.8314 78.4233 75.2167 78.6579 75.6272C78.7947 75.8673 78.9106 76.1159 79.0014 76.3714C79.2429 77.0625 79.3714 77.8443 79.3839 78.7198C79.3867 78.8831 79.3839 79.0409 79.3769 79.2C79.3616 79.5058 79.3267 79.8004 79.2736 80.0894C79.0446 81.3376 78.4499 82.4113 77.4893 83.302C76.7214 84.0169 75.7441 84.5628 74.5601 84.9328C74.3507 85.0012 74.1328 85.0654 73.9081 85.1199L73.9095 85.1185Z" fill="white"/>
<path d="M148.174 62.572L146.843 62.5636C142.229 62.5371 137.698 61.261 133.744 58.8763C130.833 57.1199 127.506 56.1914 124.121 56.1914C120.737 56.1914 117.408 57.1199 114.499 58.8749C110.543 61.261 106.014 62.5357 101.397 62.5622L96.0552 62.5971V88.8036C96.0552 97.8286 100.414 106.384 107.716 111.689L121.615 121.789L123.915 123.76L140.525 111.69C147.827 106.386 152.186 97.8314 152.186 88.805V62.5985L148.174 62.572ZM144.109 88.805C144.109 95.2526 140.994 101.365 135.778 105.154L124.123 113.624L112.465 105.153C107.248 101.364 104.134 95.2512 104.134 88.8036V70.5163C109.262 70.0751 114.241 68.4625 118.672 65.7902C120.322 64.7933 122.207 64.267 124.121 64.267C126.036 64.267 127.92 64.7933 129.572 65.7902C134.002 68.4611 138.98 70.0737 144.109 70.5149V88.8022V88.805Z" fill="white"/>
<path d="M109.784 54.2625L117.467 51.7703C114.095 41.3757 107.646 32.4331 98.8153 25.9087C89.8028 19.2503 79.0997 15.7305 67.8645 15.7305C53.9389 15.7305 40.8455 21.1533 30.9981 31.0006C21.1508 40.8479 15.728 53.94 15.728 67.867C15.728 81.794 21.1508 94.8846 30.9981 104.731C40.8455 114.578 53.9375 120.001 67.8631 120.001C78.8051 120.001 89.2793 116.647 98.1521 110.303L93.4539 103.732C85.9591 109.091 77.1101 111.924 67.8631 111.924C43.5694 111.924 23.805 92.1607 23.805 67.867C23.805 43.5733 43.5708 23.8074 67.8645 23.8074C87.03 23.8074 103.875 36.0464 109.784 54.2625Z" fill="white"/>
<path d="M67.866 127.652C34.8992 127.652 8.07696 100.831 8.07696 67.866C8.07696 34.9005 34.8978 8.07695 67.866 8.07695C94.8501 8.07695 118.591 26.2512 125.598 52.2747L133.398 50.1749C131.476 43.0389 128.409 36.2981 124.282 30.1381C120.222 24.0773 115.239 18.7313 109.474 14.2509C103.648 9.72306 97.1762 6.19908 90.2385 3.77669C83.0621 1.27053 75.5352 0 67.866 0C58.7056 0 49.8174 1.7955 41.4487 5.33484C33.3661 8.75271 26.1087 13.6464 19.8775 19.8775C13.6464 26.1087 8.75271 33.3661 5.33484 41.4487C1.7955 49.8174 0 58.7056 0 67.866C0 77.0264 1.7955 85.9145 5.33484 94.2833C8.75271 102.364 13.6464 109.622 19.8775 115.853C26.1087 122.084 33.3661 126.976 41.4487 130.394C49.8174 133.934 58.7056 135.729 67.866 135.729C75.5702 135.729 83.1305 134.447 90.3377 131.919C97.3046 129.474 103.797 125.921 109.637 121.354L104.661 114.992C94.0683 123.275 81.3448 127.652 67.866 127.652Z" fill="white"/>
<path d="M116.671 82.7776L110.959 88.4894L121.064 98.5936L136.078 83.579L130.367 77.8672L121.064 87.17L116.671 82.7776Z" fill="white"/>
</svg>
